Coordinates
version=1
nRows=11
nColumns=36
inDegrees=yes

Units are S.I. units (second, meters, Newtons, ...)
If the header above contains a line with 'inDegrees', this indicates whether rotational values are in degrees (yes) or radians (no).

endheader
time	pelvis_tilt	pelvis_list	pelvis_rotation	pelvis_tx	pelvis_ty	pelvis_tz	hip_flexion_r	hip_adduction_r	hip_rotation_r	knee_angle_r	knee_angle_r_beta	ankle_angle_r	subtalar_angle_r	mtp_angle_r	hip_flexion_l	hip_adduction_l	hip_rotation_l	knee_angle_l	knee_angle_l_beta	ankle_angle_l	subtalar_angle_l	mtp_angle_l	lumbar_extension	lumbar_bending	lumbar_rotation	arm_flex_r	arm_add_r	arm_rot_r	elbow_flex_r	pro_sup_r	arm_flex_l	arm_add_l	arm_rot_l	elbow_flex_l	pro_sup_l
      0.00000000	     10.19269433	     -2.70623921	      3.27629524	      0.52808067	      0.93978617	      0.00959631	     25.45159273	      1.76053194	     -0.65863803	      3.24916714	      0.05670866	      1.04762191	    -10.79240543	     -6.50181784	     -5.77213387	      4.24800134	     -3.18182860	     20.53594422	      0.35841984	     20.54990309	     -2.29675629	     -6.50181784	    -16.31012419	     -2.38180997	     -1.73037073	     38.07906723	     10.90660016	     55.11859543	    128.20929070	    106.16230616	     35.57507221	     10.17399214	     68.25690364	    124.01764513	    108.39911691
      0.01666670	      7.96972713	     -1.70258209	      3.24665417	      0.53191732	      0.93088913	      0.01017107	     26.79462659	      0.00318108	      2.45660384	      0.47241588	      0.00824521	      2.48789615	     -8.74023991	     -6.51594207	     -3.89283242	      5.91637959	      1.37531885	     19.70557807	      0.34392722	     18.31746671	     -5.69729613	     -6.51594207	    -12.81352285	     -2.51964778	     -1.46752065	     38.90279870	     12.11990278	     57.70821152	    128.71884989	    106.31015943	     35.93733134	      9.77961418	     70.77438542	    128.25202632	    106.62075477
      0.03333330	      7.72791727	     -2.09373730	      2.64666116	      0.53203745	      0.93151728	      0.01133570	     26.62079073	      0.55053896	      3.71754199	      0.52682373	      0.00919481	      2.92371475	     -8.68275640	     -6.73680391	     -2.99244632	      5.43242856	      0.45223264	     20.88732501	      0.36455259	     18.00181756	     -6.54034872	     -6.73680391	    -12.31229949	     -2.13774639	     -0.12020778	     38.51673699	     11.96110289	     58.95533180	    129.33278424	    107.08765471	     35.97054712	      9.53280265	     71.55989630	    129.74993084	    104.22532964
      0.05000000	      7.81990544	     -2.37568162	      3.04018816	      0.53243331	      0.93338037	      0.01115300	     26.37444412	      0.84838870	      3.43127379	      0.94515652	      0.01649609	      3.04981561	     -8.16326967	     -6.75879088	     -3.44800648	      5.02506191	      1.16804250	     20.42765251	      0.35652979	     16.95062983	     -6.61445018	     -6.75879088	    -12.08103121	     -1.66893789	     -0.04215359	     38.15265814	     12.09296225	     60.27445160	    128.98923014	    107.13300418	     36.13286391	      9.56739561	     72.20353563	    129.62035572	    103.82712251
      0.06666670	      8.33089007	     -3.15805679	      3.20074937	      0.53244108	      0.93184206	      0.01047483	     26.13229005	      1.67376673	      3.65395247	      1.76331380	      0.03077563	      3.60537116	     -8.77768346	     -7.22942232	     -3.81758921	      4.05005978	      1.24824733	     20.68983575	      0.36110576	     16.36690286	     -7.33486156	     -7.22942232	    -12.28537207	     -0.40188997	     -0.20597914	     38.12748361	     12.30747382	     61.24352798	    128.27848087	    106.13522854	     36.32022771	      9.45435521	     72.40926058	    129.18478986	    100.02917603
      0.08333330	      8.37972909	     -3.56259243	      3.44632544	      0.53240469	      0.93233861	      0.01015780	     26.27947631	      2.10930181	      3.99516720	      2.45402424	      0.04283080	      3.93599247	     -9.89176489	     -7.31489367	     -3.62056399	      3.45272732	      1.19583259	     20.99416236	      0.36641726	     15.79965130	     -7.59595467	     -7.31489367	    -11.97327568	      0.20989771	     -0.59024658	     37.81142708	     12.42007916	     61.85878222	    127.51438726	    104.94264721	     36.34908159	      9.25678707	     72.21409830	    128.70908187	     98.37958838
      0.10000000	      8.59787891	     -3.91931351	      3.55400995	      0.53203776	      0.93468492	      0.01017729	     26.14220535	      2.43380585	      4.11659975	      2.72109571	      0.04749208	      4.06883300	    -10.52765915	     -7.35905492	     -3.63955101	      2.96081374	      1.03450304	     21.18297238	      0.36971261	     15.32262836	     -7.80130275	     -7.35905492	    -11.93729104	      0.85119314	     -0.90331971	     37.76448584	     12.49958271	     62.30540421	    126.55538617	    101.06197008	     36.24726003	      9.01189476	     72.04945071	    128.38730323	     94.70171735
      0.11666670	      8.74317989	     -4.20207837	      3.90641069	      0.53203148	      0.93457338	      0.00973496	     25.96726142	      2.58080002	      3.68634748	      2.78499718	      0.04860737	      4.03519042	    -10.25572971	     -7.38607470	     -3.65091295	      2.56428570	      0.97998022	     21.42758149	      0.37398185	     14.58594919	     -8.40967818	     -7.38607470	    -11.91643081	      1.28080852	     -1.33497879	     37.97122176	     12.50430713	     62.56580697	    125.95232375	     98.81732923	     36.18952957	      8.90206281	     72.26937514	    128.36861158	     92.37363903
      0.13333330	      8.93843575	     -4.42984538	      4.05007374	      0.53203170	      0.93445364	      0.00975217	     25.68906444	      2.77621208	      3.64262651	      2.68754182	      0.04690645	      3.63419596	    -10.48112465	     -7.40262709	     -3.85865550	      2.24889953	      0.63470024	     21.44635107	      0.37430944	     13.93672128	     -8.52464126	     -7.40262709	    -11.97798560	      1.65621334	     -1.46761971	     38.12051923	     12.54260581	     62.48896391	    125.23455460	     98.23915758	     36.05971024	      8.84014081	     72.29362920	    128.30136710	     91.40830061
      0.15000000	      8.98687792	     -4.54659536	      4.18839747	      0.53213197	      0.93428800	      0.00967051	     25.59803616	      2.83276267	      3.41036238	      2.58259925	      0.04507486	      3.33836741	    -10.25923450	     -7.42099196	     -3.81218308	      2.07446963	      0.38527412	     21.58482037	      0.37672618	     13.51532284	     -8.51557835	     -7.42099196	    -11.98633680	      1.86527756	     -1.42550718	     38.42503491	     12.60189899	     62.38492302	    124.92589990	     96.43546344	     35.77481499	      8.79814168	     72.43879471	    128.53628878	     89.39123173
      0.16666670	      9.00838205	     -4.53023652	      3.92491312	      0.53242702	      0.93237072	      0.00999270	     25.43373689	      2.91082177	      3.36569110	      2.32181877	      0.04052338	      3.08446941	     -9.97335634	     -7.42558233	     -3.67240687	      2.07494621	      0.06529085	     21.70133530	      0.37875975	     13.18145593	     -8.32877656	     -7.42558233	    -12.05589455	      1.84155285	     -1.08533226	     38.63075148	     12.67495358	     61.94216914	    124.82928793	    102.58982644	     35.54571504	      8.66328757	     72.12260780	    128.68700461	     93.61047792
